name Walk6.mot
datacolumns 19
datarows 25
range 1.19300000 1.21700000
endheader

                time	   L_ground_force_vx	   L_ground_force_vy	   L_ground_force_vz	   L_ground_force_px	   L_ground_force_py	   L_ground_force_pz	   R_ground_force_vx	   R_ground_force_vy	   R_ground_force_vz	   R_ground_force_px	   R_ground_force_py	   R_ground_force_pz	   L_ground_torque_x	   L_ground_torque_y	   L_ground_torque_z	   R_ground_torque_x	   R_ground_torque_y	   R_ground_torque_z	
          1.19300000	          0.00000000	          0.00000000	          0.00000000	          0.00000000	          0.00000000	          0.00000000	         28.18763146	        488.75813119	         23.75293411	         -0.38361045	          0.00000000	          0.01408744	          0.00000000	          0.00000000	          0.00000000	          0.00000000	         -1.12209424	          0.00000000	
          1.19400000	          0.00000000	          0.00000000	          0.00000000	          0.00000000	          0.00000000	          0.00000000	         28.71709794	        490.25061014	         23.68174035	         -0.38346301	          0.00000000	          0.01393934	          0.00000000	          0.00000000	          0.00000000	          0.00000000	         -1.07367439	          0.00000000	
          1.19500000	          0.00000000	          0.00000000	          0.00000000	          0.00000000	          0.00000000	          0.00000000	         29.19505004	        491.74576493	         23.67905222	         -0.38339281	          0.00000000	          0.01386709	          0.00000000	          0.00000000	          0.00000000	          0.00000000	         -1.03765601	          0.00000000	
          1.19600000	          0.00000000	          0.00000000	          0.00000000	          0.00000000	          0.00000000	          0.00000000	         29.65847576	        493.23111408	         23.74649714	         -0.38338554	          0.00000000	          0.01391760	          0.00000000	          0.00000000	          0.00000000	          0.00000000	         -1.03038102	          0.00000000	
          1.19700000	          0.00000000	          0.00000000	          0.00000000	          0.00000000	          0.00000000	          0.00000000	         30.13311298	        494.68441244	         23.86876170	         -0.38341593	          0.00000000	          0.01406817	          0.00000000	          0.00000000	          0.00000000	          0.00000000	         -1.05185235	          0.00000000	
          1.19800000	          0.00000000	          0.00000000	          0.00000000	          0.00000000	          0.00000000	          0.00000000	         30.65190597	        496.11866613	         24.01739976	         -0.38346679	          0.00000000	          0.01426503	          0.00000000	          0.00000000	          0.00000000	          0.00000000	         -1.09947691	          0.00000000	
          1.19900000	          0.00000000	          0.00000000	          0.00000000	          0.00000000	          0.00000000	          0.00000000	         31.24908818	        497.58524607	         24.14433618	         -0.38352076	          0.00000000	          0.01446468	          0.00000000	          0.00000000	          0.00000000	          0.00000000	         -1.16743605	          0.00000000	
          1.20000000	          0.00000000	          0.00000000	          0.00000000	          0.00000000	          0.00000000	          0.00000000	         31.93911020	        499.11248756	         24.19756710	         -0.38355495	          0.00000000	          0.01465441	          0.00000000	          0.00000000	          0.00000000	          0.00000000	         -1.24239899	          0.00000000	
          1.20100000	          0.00000000	          0.00000000	          0.00000000	          0.00000000	          0.00000000	          0.00000000	         32.70751484	        500.67983573	         24.14865888	         -0.38354411	          0.00000000	          0.01481729	          0.00000000	          0.00000000	          0.00000000	          0.00000000	         -1.30418956	          0.00000000	
          1.20200000	          0.00000000	          0.00000000	          0.00000000	          0.00000000	          0.00000000	          0.00000000	         33.50430847	        502.25793664	         24.00694779	         -0.38347534	          0.00000000	          0.01490150	          0.00000000	          0.00000000	          0.00000000	          0.00000000	         -1.33044019	          0.00000000	
          1.20300000	          0.00000000	          0.00000000	          0.00000000	          0.00000000	          0.00000000	          0.00000000	         34.25338995	        503.84330303	         23.82240868	         -0.38336796	          0.00000000	          0.01487460	          0.00000000	          0.00000000	          0.00000000	          0.00000000	         -1.30971476	          0.00000000	
          1.20400000	          0.00000000	          0.00000000	          0.00000000	          0.00000000	          0.00000000	          0.00000000	         34.90325024	        505.43912880	         23.67125647	         -0.38326357	          0.00000000	          0.01478066	          0.00000000	          0.00000000	          0.00000000	          0.00000000	         -1.25645380	          0.00000000	
          1.20500000	          0.00000000	          0.00000000	          0.00000000	          0.00000000	          0.00000000	          0.00000000	         35.47757122	        507.01506033	         23.61090576	         -0.38318965	          0.00000000	          0.01470861	          0.00000000	          0.00000000	          0.00000000	          0.00000000	         -1.20724234	          0.00000000	
          1.20600000	          0.00000000	          0.00000000	          0.00000000	          0.00000000	          0.00000000	          0.00000000	         36.04874249	        508.52124132	         23.64325845	         -0.38313980	          0.00000000	          0.01472407	          0.00000000	          0.00000000	          0.00000000	          0.00000000	         -1.19418385	          0.00000000	
          1.20700000	          0.00000000	          0.00000000	          0.00000000	          0.00000000	          0.00000000	          0.00000000	         36.66010959	        509.95203089	         23.73190752	         -0.38309138	          0.00000000	          0.01483483	          0.00000000	          0.00000000	          0.00000000	          0.00000000	         -1.22329808	          0.00000000	
          1.20800000	          0.00000000	          0.00000000	          0.00000000	          0.00000000	          0.00000000	          0.00000000	         37.31163493	        511.37367960	         23.84090521	         -0.38303399	          0.00000000	          0.01500837	          0.00000000	          0.00000000	          0.00000000	          0.00000000	         -1.28269756	          0.00000000	
          1.20900000	          0.00000000	          0.00000000	          0.00000000	          0.00000000	          0.00000000	          0.00000000	         38.01120486	        512.88488663	         23.93889348	         -0.38296812	          0.00000000	          0.01520432	          0.00000000	          0.00000000	          0.00000000	          0.00000000	         -1.36016093	          0.00000000	
          1.21000000	          0.00000000	          0.00000000	          0.00000000	          0.00000000	          0.00000000	          0.00000000	         38.78279392	        514.54560466	         23.98488857	         -0.38289234	          0.00000000	          0.01538532	          0.00000000	          0.00000000	          0.00000000	          0.00000000	         -1.44174198	          0.00000000	
          1.21100000	          0.00000000	          0.00000000	          0.00000000	          0.00000000	          0.00000000	          0.00000000	         39.61849500	        516.32745498	         23.94287008	         -0.38281109	          0.00000000	          0.01552817	          0.00000000	          0.00000000	          0.00000000	          0.00000000	         -1.50572977	          0.00000000	
          1.21200000	          0.00000000	          0.00000000	          0.00000000	          0.00000000	          0.00000000	          0.00000000	         40.45828753	        518.13968477	         23.80913877	         -0.38273729	          0.00000000	          0.01563418	          0.00000000	          0.00000000	          0.00000000	          0.00000000	         -1.53156738	          0.00000000	
          1.21300000	          0.00000000	          0.00000000	          0.00000000	          0.00000000	          0.00000000	          0.00000000	         41.23019040	        519.90985063	         23.61511968	         -0.38267635	          0.00000000	          0.01571937	          0.00000000	          0.00000000	          0.00000000	          0.00000000	         -1.51512671	          0.00000000	
          1.21400000	          0.00000000	          0.00000000	          0.00000000	          0.00000000	          0.00000000	          0.00000000	         41.90525525	        521.62964080	         23.41319221	         -0.38262520	          0.00000000	          0.01580316	          0.00000000	          0.00000000	          0.00000000	          0.00000000	         -1.47630708	          0.00000000	
          1.21500000	          0.00000000	          0.00000000	          0.00000000	          0.00000000	          0.00000000	          0.00000000	         42.51268286	        523.32141264	         23.25470980	         -0.38258365	          0.00000000	          0.01589675	          0.00000000	          0.00000000	          0.00000000	          0.00000000	         -1.44968110	          0.00000000	
          1.21600000	          0.00000000	          0.00000000	          0.00000000	          0.00000000	          0.00000000	          0.00000000	         43.11203499	        524.98563870	         23.15739486	         -0.38254681	          0.00000000	          0.01598585	          0.00000000	          0.00000000	          0.00000000	          0.00000000	         -1.45976450	          0.00000000	
          1.21700000	          0.00000000	          0.00000000	          0.00000000	          0.00000000	          0.00000000	          0.00000000	         43.74885665	        526.61274299	         23.09315407	         -0.38250009	          0.00000000	          0.01603919	          0.00000000	          0.00000000	          0.00000000	          0.00000000	         -1.50207613	          0.00000000	
